HIERARCHY
ROOT hips
{
  OFFSET 0 10.6860622 2.3727825e-15
  CHANNELS 6 Xposition Yposition Zposition Yrotation Xrotation Zrotation
  JOINT leftUpperLeg
  {
    OFFSET 0.6642549969 -0.9402397400000004 0
    CHANNELS 3 Yrotation Xrotation Zrotation
    JOINT leftLowerLeg
    {
      OFFSET 0 -3.997221335632195 0
      CHANNELS 3 Yrotation Xrotation Zrotation
      JOINT leftFoot
      {
        OFFSET -0.13777839790000004 -4.6145792000000005 -0.22186036399999998
        CHANNELS 3 Yrotation Xrotation Zrotation
        JOINT leftToes
        {
          OFFSET -0.03777410834999995 -0.9130806927000008 0.85230013
          CHANNELS 3 Yrotation Xrotation Zrotation
          End Site
          {
            OFFSET -0.03777410834999995 -0.9130806927000008 0.85230013
          }
        }
      }
    }
  }
  JOINT rightUpperLeg
  {
    OFFSET -0.6642778626 -0.9402397400000004 0
    CHANNELS 3 Yrotation Xrotation Zrotation
    JOINT rightLowerLeg
    {
      OFFSET 0 -3.997221452859387 0
      CHANNELS 3 Yrotation Xrotation Zrotation
      JOINT rightFoot
      {
        OFFSET 0.1377926176 -4.6145792000000005 -0.22185782299999995
        CHANNELS 3 Yrotation Xrotation Zrotation
        JOINT rightToes
        {
          OFFSET 0.037780746850000047 -0.9130806927000008 0.85230167
          CHANNELS 3 Yrotation Xrotation Zrotation
          End Site
          {
            OFFSET 0.037780746850000047 -0.9130806927000008 0.85230167
          }
        }
      }
    }
  }
  JOINT spine
  {
    OFFSET 0 0.13988381660000015 0
    CHANNELS 3 Yrotation Xrotation Zrotation
    JOINT chest
    {
      OFFSET 0 0.6191039003973773 0
      CHANNELS 3 Yrotation Xrotation Zrotation
      JOINT upperChest
      {
        OFFSET 0 0.9855186130586943 0
        CHANNELS 3 Yrotation Xrotation Zrotation
        JOINT leftShoulder
        {
          OFFSET 0.1807663869 1.5087829790000005 0
          CHANNELS 3 Yrotation Xrotation Zrotation
          JOINT leftUpperArm
          {
            OFFSET 0.5985063006419806 0 0
            CHANNELS 3 Yrotation Xrotation Zrotation
            JOINT leftLowerArm
            {
              OFFSET 2.2993332369501065 0 0
              CHANNELS 3 Yrotation Xrotation Zrotation
              JOINT leftHand
              {
                OFFSET 2.395047042602395 0 0
                CHANNELS 3 Yrotation Xrotation Zrotation
                JOINT leftIndexProximal
                {
                  OFFSET 0.5766295810000004 0.04556643899499946 0.17265095988184
                  CHANNELS 3 Yrotation Xrotation Zrotation
                  JOINT leftIndexIntermediate
                  {
                    OFFSET 0.2957229000000008 -0.019352197700001517 -0.007932640616999987
                    CHANNELS 3 Yrotation Xrotation Zrotation
                    JOINT leftIndexDistal
                    {
                      OFFSET 0.19008243099999922 -0.012484908149998475 -0.002786250786000012
                      CHANNELS 3 Yrotation Xrotation Zrotation
                      End Site
                      {
                        OFFSET 0.19008243099999922 -0.012484908149998475 -0.002786250786000012
                      }
                    }
                  }
                }
                JOINT leftMiddleProximal
                {
                  OFFSET 0.5834975091000001 0.0524350405149987 0.02204081888183999
                  CHANNELS 3 Yrotation Xrotation Zrotation
                  JOINT leftMiddleIntermediate
                  {
                    OFFSET 0.33880573540000003 -0.019871473270000717 -0.00000971183179999946
                    CHANNELS 3 Yrotation Xrotation Zrotation
                    JOINT leftMiddleDistal
                    {
                      OFFSET 0.20676022730000088 -0.012221336379999448 0.0001471936708000235
                      CHANNELS 3 Yrotation Xrotation Zrotation
                      End Site
                      {
                        OFFSET 0.20676022730000088 -0.012221336379999448 0.0001471936708000235
                      }
                    }
                  }
                }
                JOINT leftLittleProximal
                {
                  OFFSET 0.5344154683999995 -0.012880921405001189 -0.24414037221816004
                  CHANNELS 3 Yrotation Xrotation Zrotation
                  JOINT leftLittleIntermediate
                  {
                    OFFSET 0.21758961730000093 -0.011650919939999227 0.011893592810000034
                    CHANNELS 3 Yrotation Xrotation Zrotation
                    JOINT leftLittleDistal
                    {
                      OFFSET 0.1475273964999999 -0.008152365682999818 0.006001092492999946
                      CHANNELS 3 Yrotation Xrotation Zrotation
                      End Site
                      {
                        OFFSET 0.1475273964999999 -0.008152365682999818 0.006001092492999946
                      }
                    }
                  }
                }
                JOINT leftRingProximal
                {
                  OFFSET 0.5799399463000003 0.026911854694997794 -0.12150566991816003
                  CHANNELS 3 Yrotation Xrotation Zrotation
                  JOINT leftRingIntermediate
                  {
                    OFFSET 0.26167887460000006 -0.013480186499999602 0.010996293000000053
                    CHANNELS 3 Yrotation Xrotation Zrotation
                    JOINT leftRingDistal
                    {
                      OFFSET 0.17667108799999987 -0.008990287899999228 0.0055541023999999065
                      CHANNELS 3 Yrotation Xrotation Zrotation
                      End Site
                      {
                        OFFSET 0.17667108799999987 -0.008990287899999228 0.0055541023999999065
                      }
                    }
                  }
                }
                JOINT leftThumbProximal
                {
                  OFFSET 0.11018806699999972 -0.09448718900500053 0.17047963138184
                  CHANNELS 3 Yrotation Xrotation Zrotation
                  JOINT leftThumbIntermediate
                  {
                    OFFSET 0.31062601459999983 -0.08126270900000132 0.15443142000000007
                    CHANNELS 3 Yrotation Xrotation Zrotation
                    JOINT leftThumbDistal
                    {
                      OFFSET 0.21627175790000086 -0.08833193599999878 0.018771167799999988
                      CHANNELS 3 Yrotation Xrotation Zrotation
                      End Site
                      {
                        OFFSET 0.21627175790000086 -0.08833193599999878 0.018771167799999988
                      }
                    }
                  }
                }
              }
            }
          }
        }
        JOINT neck
        {
          OFFSET 0 1.5463305265074576 0
          CHANNELS 3 Yrotation Xrotation Zrotation
          JOINT head
          {
            OFFSET 0 0.8456443600000344 0
            CHANNELS 3 Yrotation Xrotation Zrotation
            JOINT leftEye
            {
              OFFSET 0.30408573140000006 0.5104519199999995 0.1276382305
              CHANNELS 3 Yrotation Xrotation Zrotation
              End Site
              {
                OFFSET 0.30408573140000006 0.5104519199999995 0.1276382305
              }
            }
            JOINT rightEye
            {
              OFFSET -0.30409491089999996 0.5104519199999995 0.1276379445
              CHANNELS 3 Yrotation Xrotation Zrotation
              End Site
              {
                OFFSET -0.30409491089999996 0.5104519199999995 0.1276379445
              }
            }
            JOINT jaw
            {
              OFFSET -3.155239131000001e-7 -0.11984121820000082 0.60178107
              CHANNELS 3 Yrotation Xrotation Zrotation
              End Site
              {
                OFFSET -3.155239131000001e-7 -0.11984121820000082 0.60178107
              }
            }
          }
        }
        JOINT rightShoulder
        {
          OFFSET -0.1807303465 1.5087829790000005 0
          CHANNELS 3 Yrotation Xrotation Zrotation
          JOINT rightUpperArm
          {
            OFFSET -0.5985063796536958 0 0
            CHANNELS 3 Yrotation Xrotation Zrotation
            JOINT rightLowerArm
            {
              OFFSET -2.2993322059002854 0 0
              CHANNELS 3 Yrotation Xrotation Zrotation
              JOINT rightHand
              {
                OFFSET -2.395045314457259 0 0
                CHANNELS 3 Yrotation Xrotation Zrotation
                JOINT rightIndexProximal
                {
                  OFFSET -0.5764487688300002 0.0441371204405987 0.17361932004999997
                  CHANNELS 3 Yrotation Xrotation Zrotation
                  JOINT rightIndexIntermediate
                  {
                    OFFSET -0.29573011380000047 -0.01934826376999843 -0.007698921482999974
                    CHANNELS 3 Yrotation Xrotation Zrotation
                    JOINT rightIndexDistal
                    {
                      OFFSET -0.19008373999999884 -0.012503266380000655 -0.0026365778999999897
                      CHANNELS 3 Yrotation Xrotation Zrotation
                      End Site
                      {
                        OFFSET -0.19008373999999884 -0.012503266380000655 -0.0026365778999999897
                      }
                    }
                  }
                }
                JOINT rightMiddleProximal
                {
                  OFFSET -0.5834852037300005 0.05211639405060153 0.02307162440000001
                  CHANNELS 3 Yrotation Xrotation Zrotation
                  JOINT rightMiddleIntermediate
                  {
                    OFFSET -0.33880114510000003 -0.019952774050000954 0.0002455003561999819
                    CHANNELS 3 Yrotation Xrotation Zrotation
                    JOINT rightMiddleDistal
                    {
                      OFFSET -0.20675694929999955 -0.012273788999999091 0.00030209124000002766
                      CHANNELS 3 Yrotation Xrotation Zrotation
                      End Site
                      {
                        OFFSET -0.20675694929999955 -0.012273788999999091 0.00030209124000002766
                      }
                    }
                  }
                }
                JOINT rightLittleProximal
                {
                  OFFSET -0.5346811737299992 -0.011214256288399227 -0.24363941305000003
                  CHANNELS 3 Yrotation Xrotation Zrotation
                  JOINT rightLittleIntermediate
                  {
                    OFFSET -0.21757715980000092 -0.011771559690000988 0.01201554387
                    CHANNELS 3 Yrotation Xrotation Zrotation
                    JOINT rightLittleDistal
                    {
                      OFFSET -0.1475201849000004 -0.00822055339600003 0.006082065407000015
                      CHANNELS 3 Yrotation Xrotation Zrotation
                      End Site
                      {
                        OFFSET -0.1475201849000004 -0.00822055339600003 0.006082065407000015
                      }
                    }
                  }
                }
                JOINT rightRingProximal
                {
                  OFFSET -0.5800810755299999 0.027657985680600072 -0.12066365025000003
                  CHANNELS 3 Yrotation Xrotation Zrotation
                  JOINT rightRingIntermediate
                  {
                    OFFSET -0.26166445029999974 -0.013623118409999302 0.011164098990000045
                    CHANNELS 3 Yrotation Xrotation Zrotation
                    JOINT rightRingDistal
                    {
                      OFFSET -0.17666387530000027 -0.009072900100000503 0.005668185599999959
                      CHANNELS 3 Yrotation Xrotation Zrotation
                      End Site
                      {
                        OFFSET -0.17666387530000027 -0.009072900100000503 0.005668185599999959
                      }
                    }
                  }
                }
                JOINT rightThumbProximal
                {
                  OFFSET -0.10997596379000074 -0.09577489355940072 0.16989765924999997
                  CHANNELS 3 Yrotation Xrotation Zrotation
                  JOINT rightThumbIntermediate
                  {
                    OFFSET -0.31036620999999986 -0.08229339117999834 0.15440884469999996
                    CHANNELS 3 Yrotation Xrotation Zrotation
                    JOINT rightThumbDistal
                    {
                      OFFSET -0.21631306399999906 -0.08825326400000111 0.018656797720000014
                      CHANNELS 3 Yrotation Xrotation Zrotation
                      End Site
                      {
                        OFFSET -0.21631306399999906 -0.08825326400000111 0.018656797720000014
                      }
                    }
                  }
                }
              }
            }
          }
        }
      }
    }
  }
}
MOTION
Frames: 9
Frame Time: 0.03333333333333333
0 -10.610138021295173 9.662068625349045 0 -90 0 6.048215441971592 -3.4501440916418664 12.741741769220768 0.15480892243912173 5.814473767102484 7.651442677283769 -3.4891466721853983 12.2438341348832 4.57854791301599 0 0 0 -2.0218211776306876 -15.705498143924265 -4.868549715255781 -4.167618855775006 36.45920764502838 -5.7343162111746615 -0.19731294540142602 19.019742775355788 -6.524508443433069 0 0 0 -0.015654771279430633 4.40544279600805 -0.0729202700353381 -0.7488643841586141 3.2490404630914993 -0.5667987968911108 0 0 0 16.612833785730523 -1.9488866007067511 -23.90368718520093 -30.959338083851232 -32.010684435608844 -51.417650130413286 -94.21605284014993 -19.78575140840224 -11.671287811879036 8.509623579739392 24.214255508660266 -52.02316715392807 0 0 0 0 0 0 0 0 0 0 0 0 0 0 0 0 0 0 0 0 0 0 0 0 0 0 0 0 0 0 0 0 0 0 0 0 0 0 0 0 0 0 0 0 0 0 51.3501168257144 0 0 -44.40158220476031 0 0 0 0 0 0 0 0 0 0 -7.918626413959398 -4.760930724397643 16.415109974518888 21.836130130532833 -18.79523383678166 58.01286634682692 72.59093791274087 -22.15789815660298 1.8863890935837488 19.67149147305574 6.956095025453738 45.826261269208835 0 0 0 0 0 0 0 0 0 0 0 0 0 0 0 0 0 0 0 0 0 0 0 0 0 0 0 0 0 0 0 0 0 0 0 0 0 0 0 0 0 0 0 0 0
0 -10.610138021295173 9.662068625349045 0 -90 0 5.720900016691805 -3.319454984238098 12.710013756221414 0.15480888221166436 5.8144733380080345 7.651442677283769 -3.1415447049283847 12.298154280800654 4.552918445628762 0 0 0 -1.7690640094324173 -15.686149009619106 -4.806562464047377 -4.167618591092354 36.45920764502838 -5.7343157869175645 -0.43531629686699813 19.02917476736243 -6.416196285143614 0 0 0 -0.015654771279430633 4.40544279600805 -0.0729202700353381 -0.7488643841586141 3.2490404630914993 -0.5667987968911108 0 0 0 16.612833785730523 -1.9488866007067511 -23.903685800602297 -30.959338083851232 -32.010684435608844 -51.417650130413286 -94.28816177246453 -19.798525430585062 -11.751676422697914 8.672952808111399 24.15934980565241 -51.62464992074851 0 0 0 0 0 0 0 0 0 0 0 0 0 0 0 0 0 0 0 0 0 0 0 0 0 0 0 0 0 0 0 0 0 0 0 0 0 0 0 0 0 0 0 0 0 0 51.17519548106186 0 0 -43.799685201708925 0 0 0 0 0 0 0 0 0 0 -7.918626413959398 -4.760930724397643 16.415109974518888 21.836130130532833 -18.79523383678166 58.01286634682692 72.93935747823095 -22.16627806325113 1.8199444331623698 19.641405254427983 6.98857714309556 45.66176922958362 0 0 0 0 0 0 0 0 0 0 0 0 0 0 0 0 0 0 0 0 0 0 0 0 0 0 0 0 0 0 0 0 0 0 0 0 0 0 0 0 0 0 0 0 0
0 -10.610138021295173 9.662068625349045 0 -90 0 5.065744286507411 -3.058458613314068 12.644279909299819 0.15480897607573155 5.814474196196935 7.651442677283769 -2.445733925964501 12.407317862297527 4.502625955654336 0 0 0 -1.263354242002822 -15.648229387964996 -4.682293564854398 -4.167618591092354 36.45920764502838 -5.7343157869175645 -0.9115174208634288 19.0493175301495 -6.199583134576045 0 0 0 -0.015654771279430633 4.40544279600805 -0.0729202700353381 -0.7488643841586141 3.2490404630914993 -0.5667987968911108 0 0 0 16.612833785730523 -1.9488866007067511 -23.903685800602297 -30.959338083851232 -32.010684435608844 -51.417650130413286 -94.43235156989768 -19.824359709838014 -11.912435235140311 8.998346372523349 24.046363048646008 -50.82811251810198 0 0 0 0 0 0 0 0 0 0 0 0 0 0 0 0 0 0 0 0 0 0 0 0 0 0 0 0 0 0 0 0 0 0 0 0 0 0 0 0 0 0 0 0 0 0 50.82529426045649 0 0 -42.593628726974586 0 0 0 0 0 0 0 0 0 0 -7.918626413959398 -4.760930724397643 16.415109974518888 21.836128788726963 -18.795230229323227 58.01285831639743 73.63668449382695 -22.181927423991603 1.6868127436203044 19.580932757370626 7.053291797039953 45.332646670699575 0 0 0 0 0 0 0 0 0 0 0 0 0 0 0 0 0 0 0 0 0 0 0 0 0 0 0 0 0 0 0 0 0 0 0 0 0 0 0 0 0 0 0 0 0
0 -10.610138021295173 9.662068625349045 0 -90 0 4.737923420887611 -2.928169775487132 12.610278589202677 0.15480892243912173 5.814473767102484 7.651442677283769 -2.097550644009914 12.462151997297788 4.477967012265153 0 0 0 -1.0104141076390645 -15.629658751956105 -4.620017494874772 -4.167618326409701 36.45920339887795 -5.734315258804778 -1.149702697575184 19.06003387648649 -6.0912934896105915 0 0 0 -0.015654771279430633 4.40544279600805 -0.0729202700353381 -0.7488643841586141 3.2490404630914993 -0.5667987968911108 0 0 0 16.612833785730523 -1.9488866007067511 -23.903685800602297 -30.959338083851232 -32.010684435608844 -51.417650130413286 -94.50442915217465 -19.837421829989665 -11.992805174645353 9.160388294507268 23.988282814737985 -50.43011462358869 0 0 0 0 0 0 0 0 0 0 0 0 0 0 0 0 0 0 0 0 0 0 0 0 0 0 0 0 0 0 0 0 0 0 0 0 0 0 0 0 0 0 0 0 0 0 50.65031158463236 0 0 -41.989575057512454 0 0 0 0 0 0 0 0 0 0 -7.918626413959398 -4.760930724397643 16.415109974518888 21.836128788726963 -18.795232033052436 58.01286328709956 73.98556109344078 -22.18919306651019 1.620132208293221 19.550550792034763 7.0855247494352405 45.16802547204997 0 0 0 0 0 0 0 0 0 0 0 0 0 0 0 0 0 0 0 0 0 0 0 0 0 0 0 0 0 0 0 0 0 0 0 0 0 0 0 0 0 0 0 0 0
0 -10.610138021295173 9.662068625349045 0 -90 0 4.410061918805657 -2.7980775202521087 12.575535387270461 0.15480888221166436 5.8144733380080345 7.651442677283769 -1.7493175622841615 12.517131540318484 4.4536443304930895 0 0 0 -0.7574758859036841 -15.611353969517026 -4.557662446172771 -4.167617753140075 36.45920339887795 -5.734315258804778 -1.3878818090104552 19.071175492031944 -5.983045045754969 0 0 0 -0.015654771279430633 4.40544279600805 -0.0729202700353381 -0.7488643841586141 3.2490404630914993 -0.5667987968911108 0 0 0 16.612833785730523 -1.9488866007067511 -23.903685800602297 -30.959338083851232 -32.010684435608844 -51.417650130413286 -94.57649213641481 -19.85057942617318 -12.073165289201848 9.321910260913581 23.929177013743736 -50.03248036550238 0 0 0 0 0 0 0 0 0 0 0 0 0 0 0 0 0 0 0 0 0 0 0 0 0 0 0 0 0 0 0 0 0 0 0 0 0 0 0 0 0 0 0 0 0 0 50.47532894137253 0 0 -41.385523719201544 0 0 0 0 0 0 0 0 0 0 -7.918626413959398 -4.760930724397643 16.415109974518888 21.836127114412694 -18.79523383678166 58.01286634682692 74.33446109210486 -22.196081021317855 1.5534018508811882 19.520073562336933 7.117670904126958 45.00337295622024 0 0 0 0 0 0 0 0 0 0 0 0 0 0 0 0 0 0 0 0 0 0 0 0 0 0 0 0 0 0 0 0 0 0 0 0 0 0 0 0 0 0 0 0 0
0 -10.610138021295173 9.662068625349045 0 -90 0 3.753875337837916 -2.5383712781223986 12.503794235102836 0.15480888221166436 5.8144733380080345 7.651442677283769 -1.0523442458684706 12.627577296546526 4.4059904315286635 0 0 0 -0.25145004071921356 -15.575527493019532 -4.432680343442158 -4.167617753140075 36.45920339887795 -5.734315258804778 -1.8643815779287267 19.094740299747595 -5.7666026755283655 0 0 0 -0.015654771279430633 4.40544279600805 -0.0729202700353381 -0.7488643841586141 3.2490404630914993 -0.5667987968911108 0 0 0 16.612833785730523 -1.9488866007067511 -23.903685800602297 -30.959338083851232 -32.010684435608844 -51.417650130413286 -94.72060121687811 -19.877181144586757 -12.233857822076622 9.643530400827261 23.80784558617015 -49.237915155493425 0 0 0 0 0 0 0 0 0 0 0 0 0 0 0 0 0 0 0 0 0 0 0 0 0 0 0 0 0 0 0 0 0 0 0 0 0 0 0 0 0 0 0 0 0 0 50.12533596930389 0 0 -40.175671819095676 0 0 0 0 0 0 0 0 0 0 -7.918626413959398 -4.760930724397643 16.415109974518888 21.836127114412694 -18.79523383678166 58.01286634682692 75.03264129637917 -22.208734715177755 1.4197459740424472 19.458830111841223 7.181707520836992 44.67395850034143 0 0 0 0 0 0 0 0 0 0 0 0 0 0 0 0 0 0 0 0 0 0 0 0 0 0 0 0 0 0 0 0 0 0 0 0 0 0 0 0 0 0 0 0 0
0 -10.610138021295173 9.662068625349045 0 -90 0 3.4255692812204437 -2.408774442526442 12.466796342185447 0.15480888221166436 5.8144733380080345 7.651442677283769 -0.7036289511462225 12.68303419531191 4.382662627650601 0 0 0 0.0016253089364014898 -15.558009203812283 -4.370059309564847 -4.167618326409701 36.45920339887795 -5.734315258804778 -2.102689161919815 19.107160061081686 -5.658417160063723 0 0 0 -0.015654771279430633 4.40544279600805 -0.0729202700353381 -0.7488643841586141 3.2490404630914993 -0.5667987968911108 0 0 0 16.612833785730523 -1.9488866007067511 -23.903685800602297 -30.959338083851232 -32.010684435608844 -51.417650130413286 -94.7926356039515 -19.890623500444942 -12.314193401706754 9.80360400406474 23.74562460963225 -48.84101240403899 0 0 0 0 0 0 0 0 0 0 0 0 0 0 0 0 0 0 0 0 0 0 0 0 0 0 0 0 0 0 0 0 0 0 0 0 0 0 0 0 0 0 0 0 0 0 49.95031729412853 0 0 -39.56999602397473 0 0 0 0 0 0 0 0 0 0 -7.918626413959398 -4.760930724397643 16.415109974518888 21.836127114412694 -18.79523383678166 58.01286634682692 75.38188631896492 -22.21449481986762 1.3528285647096308 19.428058268088623 7.213597106419011 44.509183970005815 0 0 0 0 0 0 0 0 0 0 0 0 0 0 0 0 0 0 0 0 0 0 0 0 0 0 0 0 0 0 0 0 0 0 0 0 0 0 0 0 0 0 0 0 0
0 -10.610138021295173 9.662068625349045 0 -90 0 3.097210089148314 -2.2793913732146005 12.429059349808892 0.15480888221166436 5.8144733380080345 7.651442677283769 -0.3548606171711742 12.738628347192181 4.359675864084338 0 0 0 0.25469899603286333 -15.540756484824026 -4.307364502995202 -4.167618591092354 36.45920764502838 -5.7343157869175645 -2.3409897184051482 19.120005457062984 -5.550279083473138 0 0 0 -0.015654771279430633 4.40544279600805 -0.0729202700353381 -0.7488643841586141 3.2490404630914993 -0.5667987968911108 0 0 0 16.612833785730523 -1.9488866007067511 -23.903685800602297 -30.959338083851232 -32.010684435608844 -51.417650130413286 -94.86465548168441 -19.904159615002467 -12.394516213149064 9.963126342354819 23.68239104526155 -48.44448973446646 0 0 0 0 0 0 0 0 0 0 0 0 0 0 0 0 0 0 0 0 0 0 0 0 0 0 0 0 0 0 0 0 0 0 0 0 0 0 0 0 0 0 0 0 0 0 49.77529774214316 0 0 -38.96432143705096 0 0 0 0 0 0 0 0 0 0 -7.918626413959398 -4.760930724397643 16.415109974518888 21.836127114412694 -18.79523383678166 58.01286634682692 75.73115247612446 -22.219877033422712 1.285871854142136 19.39719491527107 7.245399431489834 44.34437971676949 0 0 0 0 0 0 0 0 0 0 0 0 0 0 0 0 0 0 0 0 0 0 0 0 0 0 0 0 0 0 0 0 0 0 0 0 0 0 0 0 0 0 0 0 0
0 -10.610138021295173 9.662068625349045 0 -90 0 2.4400897634732783 -2.021195960765238 12.351350669570701 0.15480888221166436 5.8144733380080345 7.651442677283769 0.3430837532430856 12.850263133969658 4.3147158159009935 0 0 0 0.7609466645883611 -15.507045713400807 -4.181728864768062 -4.167618591092354 36.45920764502838 -5.7343157869175645 -2.817681956677484 19.14698440112579 -5.3341036210896755 0 0 0 -0.015654771279430633 4.40544279600805 -0.0729202700353381 -0.7488643841586141 3.2490404630914993 -0.5667987968911108 0 0 0 16.612833785730523 -1.9488866007067511 -23.903685800602297 -30.959338083851232 -32.010684435608844 -51.417650130413286 -95.0086509249101 -19.93151866869898 -12.555135769836038 10.280603838188002 23.55284890181772 -47.65231995594106 0 0 0 0 0 0 0 0 0 0 0 0 0 0 0 0 0 0 0 0 0 0 0 0 0 0 0 0 0 0 0 0 0 0 0 0 0 0 0 0 0 0 0 0 0 0 49.42521806300578 0 0 -37.75175123076141 0 0 0 0 0 0 0 0 0 0 -7.918626413959398 -4.760930724397643 16.415109974518888 21.836126781904092 -18.795235640510903 58.01287437725663 76.42998298617667 -22.2295242181976 1.1518118067321546 19.335186177410197 7.308740543909846 44.014678682845904 0 0 0 0 0 0 0 0 0 0 0 0 0 0 0 0 0 0 0 0 0 0 0 0 0 0 0 0 0 0 0 0 0 0 0 0 0 0 0 0 0 0 0 0 0
